<svg xmlns="http://www.w3.org/2000/svg" viewBox="0 0 1200 400" width="1200" height="400" role="img" aria-label="CerebraLink SSE streaming timeline">
  <defs>
    <style>
      text{font-family:'Segoe UI',-apple-system,Helvetica,Arial,sans-serif}
      .sans{font-family:'Segoe UI',-apple-system,Helvetica,Arial,sans-serif}
      .mono{font-family:ui-monospace,Menlo,Consolas,monospace}
      .s{fill:none;stroke:#1F2328;stroke-linecap:round;stroke-linejoin:round;vector-effect:non-scaling-stroke}
      .ttl{font-weight:700;fill:#1F2328}
      .tag{fill:#6B6A66;font-size:12px}
      .lbl{font-size:13px;font-weight:700;fill:#1F2328}
      @keyframes march{from{stroke-dashoffset:1060}to{stroke-dashoffset:0}}
      .ekg{stroke-dasharray:1060;stroke-dashoffset:0;animation:march 6s linear infinite}
    </style>
  </defs>

  <!-- paper card + hairline -->
  <rect x="0.5" y="0.5" width="1199" height="399" rx="20" fill="#FBF8F1" stroke="#E3DDD0"/>

  <!-- eyebrow phase tag + title (bespoke single-line bolt glyph replaces emoji) -->
  <g transform="translate(40,40)">
    <path class="s" stroke-width="2.25" d="M6,-12 L-3,2 L3,2 L-2,12 L9,-3 L2,-3 Z"/>
  </g>
  <text x="62" y="48" class="ttl sans" font-size="24">One Question &#8594; A Live Stream of Events</text>
  <text x="40" y="74" class="tag sans" font-size="14">The browser opens a single POST to <tspan class="mono" fill="#0E7C86">/api/chat/stream</tspan> and receives Server-Sent Events as each agent finishes.</text>

  <!-- single faint baseline rule under the timeline (kept clear of the event labels) -->
  <line class="s" stroke="#E3DDD0" stroke-width="1" x1="40" y1="206" x2="1160" y2="206"/>

  <!-- timeline as a single continuous ink EKG line on the ledger -->
  <!-- model tier legend encoded as line-style: solid / double / triple stroke (top-right) -->
  <g transform="translate(900,98)">
    <line class="s" stroke-width="1.5" x1="0" y1="0" x2="34" y2="0"/>
    <text x="40" y="4" class="tag sans" font-size="11">Haiku</text>
    <line class="s" stroke-width="1.5" x1="100" y1="-2" x2="134" y2="-2"/>
    <line class="s" stroke-width="1.5" x1="100" y1="2" x2="134" y2="2"/>
    <text x="140" y="4" class="tag sans" font-size="11">Sonnet</text>
    <line class="s" stroke-width="1.5" x1="206" y1="-3" x2="240" y2="-3"/>
    <line class="s" stroke-width="1.5" x1="206" y1="0" x2="240" y2="0"/>
    <line class="s" stroke-width="1.5" x1="206" y1="3" x2="240" y2="3"/>
    <text x="246" y="4" class="tag sans" font-size="11">Opus</text>
  </g>

  <!-- base ink line (visible at rest), then accent "march" overlay drawn on top -->
  <path class="s" stroke-width="1.5"
    d="M70,150 H250 l8,0 l6,-12 8,24 6,-12 H300 q20,0 30,0 l8,0 l6,-22 9,40 6,-30 5,12 H520 l8,0 l6,-10 7,18 5,-8 H760 q20,0 30,0 H960 l8,0 l5,-14 8,26 6,-12 H1130"/>

  <!-- accent recommended/progress path: static-visible at rest (dashoffset:0), marches -->
  <path class="s ekg" stroke="#0E7C86" stroke-width="2.25"
    d="M70,150 H250 l8,0 l6,-12 8,24 6,-12 H300 q20,0 30,0 l8,0 l6,-22 9,40 6,-30 5,12 H520"/>

  <!-- event markers: ink dots with sans label + mono/sans sublabel -->
  <g transform="translate(70,150)">
    <circle cx="0" cy="0" r="5" fill="#1F2328"/>
    <text y="-26" text-anchor="middle" class="lbl sans">status</text>
    <text y="42" text-anchor="middle" class="tag sans">router</text>
  </g>
  <g transform="translate(280,150)">
    <circle cx="0" cy="0" r="5" fill="#1F2328"/>
    <text y="-26" text-anchor="middle" class="lbl sans">status <tspan class="mono">&#215;N</tspan></text>
    <text y="42" text-anchor="middle" class="tag sans">fetch + council</text>
  </g>
  <!-- fast_answer = the ONE accent: teal node + the ONE key number in mono teal -->
  <g transform="translate(520,150)">
    <circle cx="0" cy="0" r="7" fill="#0E7C86"/>
    <circle cx="0" cy="0" r="11.5" class="s" stroke="#0E7C86" stroke-width="1.5"/>
    <text y="-28" text-anchor="middle" class="lbl sans" fill="#0E7C86">fast_answer</text>
    <text y="48" text-anchor="middle" class="sans" font-size="13"><tspan class="mono" fill="#0E7C86" font-weight="700">~10 s</tspan> <tspan class="tag">&#183; partial</tspan></text>
  </g>
  <g transform="translate(740,150)">
    <circle cx="0" cy="0" r="5" fill="#1F2328"/>
    <text y="-26" text-anchor="middle" class="lbl sans">status</text>
    <text y="42" text-anchor="middle" class="tag sans">full composer</text>
  </g>
  <!-- result = confirmed/ok → sage outline node -->
  <g transform="translate(960,150)">
    <circle cx="0" cy="0" r="7" fill="#5E7E5A"/>
    <text y="-28" text-anchor="middle" class="lbl sans" fill="#5E7E5A">result</text>
    <text y="48" text-anchor="middle" class="tag sans">full + trust + citations</text>
  </g>
  <g transform="translate(1130,150)">
    <circle cx="0" cy="0" r="5" fill="#1F2328"/>
    <text y="-26" text-anchor="middle" class="lbl sans">done</text>
    <text y="42" text-anchor="middle" class="tag sans">close</text>
  </g>

  <!-- info panel: white surface, hairline border -->
  <g transform="translate(40,250)">
    <rect width="1120" height="92" rx="14" fill="#FFFFFF" stroke="#E3DDD0"/>
    <text x="20" y="30" class="tag sans" fill="#6B6A66" font-weight="700" letter-spacing="0.5">WHY STREAM?</text>
    <text x="20" y="54" class="tag sans" font-size="13" fill="#6B6A66">&#8226; The full multi-agent analysis takes about a minute &#8212; but the <tspan fill="#1F2328" font-weight="700">first answer</tspan> reaches the clinician in <tspan class="mono" fill="#0E7C86" font-weight="700">~10 s</tspan>.</text>
    <text x="20" y="74" class="tag sans" font-size="13" fill="#6B6A66">&#8226; A Next.js route handler proxies the stream and injects <tspan class="mono" fill="#1F2328">:keepalive</tspan> comments every <tspan class="mono" fill="#1F2328">15 s</tspan> so reverse proxies / tunnels don't drop the idle connection.</text>
  </g>
</svg>
