<svg xmlns="http://www.w3.org/2000/svg" viewBox="0 0 1200 720" width="1200" height="720" role="img" aria-label="CerebraLink roadmap board">
  <defs>
    <style>
      .serif{font-family:Georgia,'Times New Roman',serif}
      .sans{font-family:'Segoe UI',-apple-system,Helvetica,Arial,sans-serif}
      .mono{font-family:'SFMono-Regular',ui-monospace,Menlo,Consolas,monospace}
      .ink{fill:#1F2328}.muted{fill:#6B6A66}
      .s{fill:none;stroke:#1F2328;stroke-linecap:round;stroke-linejoin:round;vector-effect:non-scaling-stroke}
      .hair{fill:none;stroke:#CFC7B6;stroke-width:1;vector-effect:non-scaling-stroke}
      .col{font-weight:700;font-size:12px;letter-spacing:1.5px;fill:#6B6A66}
      .ct{fill:#1F2328;font-weight:600}
      .cd{fill:#6B6A66}
      /* active card border is static-visible (opacity:1 at rest) and gently pulses */
      @keyframes pulse{0%,100%{opacity:1}50%{opacity:.5}}
      .progress{animation:pulse 3s ease-in-out infinite}
    </style>
    <pattern id="grain" width="3" height="3" patternUnits="userSpaceOnUse" patternTransform="rotate(8)">
      <circle cx="0.6" cy="0.6" r="0.32" fill="#1F2328" fill-opacity="0.05"/>
    </pattern>
  </defs>

  <!-- warm paper ground + grain + editorial double frame -->
  <rect x="0" y="0" width="1200" height="720" fill="#FBF8F1"/>
  <rect x="0" y="0" width="1200" height="720" fill="url(#grain)"/>
  <rect x="12.5" y="12.5" width="1175" height="695" fill="none" stroke="#E3DDD0"/>
  <rect x="18.5" y="18.5" width="1163" height="683" fill="none" stroke="#E8E2D5"/>

  <!-- ===== MASTHEAD ===== -->
  <text x="44" y="52" class="sans muted" font-size="11.5" letter-spacing="3">PRODUCT ROADMAP</text>
  <text x="44" y="84" class="serif ink" font-size="27" font-weight="700">The Bench &amp; The Board</text>
  <text x="44" y="108" class="sub sans muted" font-size="13.5">What is shipped, in flight, and on the research bench. Columns reflect intent, not committed dates; the &#8220;Coming&#8221; column is exploratory R&amp;D.</text>
  <line class="hair" x1="44" y1="124" x2="1156" y2="124"/>

  <!-- inner panel (soft layered shadow -> white) -->
  <rect x="34" y="150" width="1132" height="540" rx="14" fill="#1F2328" opacity="0.04"/>
  <rect x="33" y="147" width="1132" height="540" rx="14" fill="#1F2328" opacity="0.05"/>
  <rect x="32" y="144" width="1132" height="540" rx="14" fill="#FFFFFF" stroke="#E3DDD0"/>

  <!-- column header eyebrows with refined clinical glyphs -->
  <g>
    <!-- SHIPPED · clipboard-with-check -->
    <g transform="translate(56,170)">
      <text x="0" y="20" class="col">SHIPPED</text>
      <g class="s" stroke-width="1.7" transform="translate(228,3)">
        <rect x="0" y="-9" width="17" height="22" rx="2.5"/>
        <path d="M5,-9 v-3 h7 v3"/>
        <path d="M4,2 l3,3 6,-8" style="stroke:#5E7E5A"/>
      </g>
      <line class="s" stroke-width="1" x1="0" y1="34" x2="258" y2="34"/>
    </g>
    <!-- IN PROGRESS · vitals/ECG monitor -->
    <g transform="translate(330,170)">
      <text x="0" y="20" class="col">IN PROGRESS</text>
      <g class="s" stroke-width="1.7" transform="translate(228,2)">
        <rect x="0" y="-8" width="20" height="15" rx="2"/>
        <path d="M3,0 h4 l2,-5 3,9 2,-4 h3"/>
      </g>
      <line class="s" stroke-width="1" x1="0" y1="34" x2="258" y2="34"/>
    </g>
    <!-- NEXT · arrow into tray -->
    <g transform="translate(604,170)">
      <text x="0" y="20" class="col">NEXT</text>
      <g class="s" stroke-width="1.7" transform="translate(232,3)">
        <circle cx="8" cy="0" r="9"/>
        <path d="M4,0 h8 M8,-4 l4,4 -4,4"/>
      </g>
      <line class="s" stroke-width="1" x1="0" y1="34" x2="258" y2="34"/>
    </g>
    <!-- RESEARCHING · microscope -->
    <g transform="translate(878,170)">
      <text x="0" y="20" class="col">RESEARCHING &#183; COMING</text>
      <g class="s" stroke-width="1.7" transform="translate(232,-8)">
        <path d="M2,20 H18"/>
        <path d="M5,20 V14"/>
        <path d="M5,14 C5,7 11,5 13,7 L9,13 C9,15 7,16 5,14 Z"/>
        <path d="M11,9 L15,5"/>
      </g>
      <line class="s" stroke-width="1" x1="0" y1="34" x2="258" y2="34"/>
    </g>
  </g>

  <!-- ============================================================ -->
  <!-- card depth: each card carries TWO offset shadow rects + white -->
  <!-- status glyphs:                                                -->
  <!--  sage dot + ink check = done/shipped                          -->
  <!--  ink-muted dot + half-filled circle = in-progress            -->
  <!--  ink dot + dashed status ring = todo                          -->
  <!-- ============================================================ -->

  <!-- SHIPPED column: white card + sage dot + ink check -->
  <g>
    <g transform="translate(185,254) rotate(-2,0,0)">
      <rect x="-108" y="-32" width="220" height="76" rx="8" fill="#1F2328" opacity="0.04"/>
      <rect x="-109" y="-35" width="220" height="76" rx="8" fill="#1F2328" opacity="0.05"/>
      <rect x="-110" y="-38" width="220" height="76" rx="8" fill="#FFFFFF" class="s" stroke-width="1.5"/>
      <!-- push-pin -->
      <g class="s" stroke-width="2.25"><path d="M0,-44 v6"/><path d="M-6,-38 h12 l-2,7 h-8 z"/><path d="M0,-31 v8"/></g>
      <!-- status: sage dot + ink check -->
      <circle cx="-92" cy="-22" r="3.6" fill="#5E7E5A"/>
      <path class="s" stroke-width="2.25" d="M-99,18 l4,5 8,-10"/>
      <text x="0" y="-2" text-anchor="middle" class="ct sans" font-size="13">Multi-agent SSE pipeline</text>
      <text x="0" y="16" text-anchor="middle" class="cd sans" font-size="10">router &#8594; council &#8594; compose &#8594; score</text>
    </g>
    <g transform="translate(185,345) rotate(1.5,0,0)">
      <rect x="-108" y="-32" width="220" height="76" rx="8" fill="#1F2328" opacity="0.04"/>
      <rect x="-109" y="-35" width="220" height="76" rx="8" fill="#1F2328" opacity="0.05"/>
      <rect x="-110" y="-38" width="220" height="76" rx="8" fill="#FFFFFF" class="s" stroke-width="1.5"/>
      <g class="s" stroke-width="2.25"><path d="M0,-44 v6"/><path d="M-6,-38 h12 l-2,7 h-8 z"/><path d="M0,-31 v8"/></g>
      <circle cx="-92" cy="-22" r="3.6" fill="#5E7E5A"/>
      <path class="s" stroke-width="2.25" d="M-99,18 l4,5 8,-10"/>
      <text x="0" y="-2" text-anchor="middle" class="ct sans" font-size="13">Six-axis trust scoring</text>
      <text x="0" y="16" text-anchor="middle" class="cd sans" font-size="10">per-answer confidence + rationale</text>
    </g>
    <g transform="translate(185,436) rotate(-1,0,0)">
      <rect x="-108" y="-32" width="220" height="76" rx="8" fill="#1F2328" opacity="0.04"/>
      <rect x="-109" y="-35" width="220" height="76" rx="8" fill="#1F2328" opacity="0.05"/>
      <rect x="-110" y="-38" width="220" height="76" rx="8" fill="#FFFFFF" class="s" stroke-width="1.5"/>
      <g class="s" stroke-width="2.25"><path d="M0,-44 v6"/><path d="M-6,-38 h12 l-2,7 h-8 z"/><path d="M0,-31 v8"/></g>
      <circle cx="-92" cy="-22" r="3.6" fill="#5E7E5A"/>
      <path class="s" stroke-width="2.25" d="M-99,18 l4,5 8,-10"/>
      <text x="0" y="-2" text-anchor="middle" class="ct sans" font-size="13">Lab parser &#8212; 3 formats</text>
      <text x="0" y="16" text-anchor="middle" class="cd sans" font-size="10">horizontal &#183; vertical &#183; serology</text>
    </g>
    <g transform="translate(185,527) rotate(2,0,0)">
      <rect x="-108" y="-32" width="220" height="76" rx="8" fill="#1F2328" opacity="0.04"/>
      <rect x="-109" y="-35" width="220" height="76" rx="8" fill="#1F2328" opacity="0.05"/>
      <rect x="-110" y="-38" width="220" height="76" rx="8" fill="#FFFFFF" class="s" stroke-width="1.5"/>
      <g class="s" stroke-width="2.25"><path d="M0,-44 v6"/><path d="M-6,-38 h12 l-2,7 h-8 z"/><path d="M0,-31 v8"/></g>
      <circle cx="-92" cy="-22" r="3.6" fill="#5E7E5A"/>
      <path class="s" stroke-width="2.25" d="M-99,18 l4,5 8,-10"/>
      <text x="0" y="-2" text-anchor="middle" class="ct sans" font-size="13">File adapter (default)</text>
      <text x="0" y="16" text-anchor="middle" class="cd sans" font-size="10">synthetic JSON &#183; <tspan class="mono">FHIR</tspan> code example</text>
    </g>
    <g transform="translate(185,618) rotate(-1.5,0,0)">
      <rect x="-108" y="-32" width="220" height="76" rx="8" fill="#1F2328" opacity="0.04"/>
      <rect x="-109" y="-35" width="220" height="76" rx="8" fill="#1F2328" opacity="0.05"/>
      <rect x="-110" y="-38" width="220" height="76" rx="8" fill="#FFFFFF" class="s" stroke-width="1.5"/>
      <g class="s" stroke-width="2.25"><path d="M0,-44 v6"/><path d="M-6,-38 h12 l-2,7 h-8 z"/><path d="M0,-31 v8"/></g>
      <circle cx="-92" cy="-22" r="3.6" fill="#5E7E5A"/>
      <path class="s" stroke-width="2.25" d="M-99,18 l4,5 8,-10"/>
      <text x="0" y="-2" text-anchor="middle" class="ct sans" font-size="13">Neo4j knowledge graph</text>
      <text x="0" y="16" text-anchor="middle" class="cd sans" font-size="10">patient &#8596; report &#8596; episode &#8596; drug</text>
    </g>
  </g>

  <!-- IN PROGRESS column: ink-muted dot + half-filled circle; one card carries the teal active border -->
  <g>
    <g transform="translate(459,254) rotate(1.5,0,0)">
      <rect x="-108" y="-32" width="220" height="76" rx="8" fill="#1F2328" opacity="0.04"/>
      <rect x="-109" y="-35" width="220" height="76" rx="8" fill="#1F2328" opacity="0.05"/>
      <rect x="-110" y="-38" width="220" height="76" rx="8" fill="#FFFFFF" class="s" stroke-width="1.5"/>
      <g class="s" stroke-width="2.25"><path d="M0,-44 v6"/><path d="M-6,-38 h12 l-2,7 h-8 z"/><path d="M0,-31 v8"/></g>
      <!-- in-progress: ink-muted dot + half-filled half-circle glyph -->
      <circle cx="-92" cy="-22" r="3.6" fill="#6B6A66"/>
      <g transform="translate(-92,21)">
        <circle class="s" stroke-width="1.5" cx="0" cy="0" r="6"/>
        <path d="M0,-6 A6,6 0 0,1 0,6 Z" fill="#6B6A66"/>
      </g>
      <text x="0" y="-2" text-anchor="middle" class="ct sans" font-size="13"><tspan class="mono">HL7 v2</tspan> segment mapping</text>
      <text x="0" y="16" text-anchor="middle" class="cd sans" font-size="10"><tspan class="mono">PID</tspan> / <tspan class="mono">PV1</tspan> / <tspan class="mono">OBX</tspan> &#8594; patient dict</text>
    </g>
    <g transform="translate(459,345) rotate(-2,0,0)">
      <rect x="-108" y="-32" width="220" height="76" rx="8" fill="#1F2328" opacity="0.04"/>
      <rect x="-109" y="-35" width="220" height="76" rx="8" fill="#1F2328" opacity="0.05"/>
      <!-- ONE active/recommended card: teal outline (inline style beats .s selector) + gentle pulse -->
      <rect x="-110" y="-38" width="220" height="76" rx="8" fill="#FFFFFF" class="s progress" style="stroke:#0E7C86" stroke-width="2.25"/>
      <g class="s" stroke-width="2.25"><path d="M0,-44 v6"/><path d="M-6,-38 h12 l-2,7 h-8 z"/><path d="M0,-31 v8"/></g>
      <circle cx="-92" cy="-22" r="3.6" fill="#6B6A66"/>
      <g transform="translate(-92,21)">
        <circle class="s" stroke-width="1.5" cx="0" cy="0" r="6"/>
        <path d="M0,-6 A6,6 0 0,1 0,6 Z" fill="#6B6A66"/>
      </g>
      <text x="0" y="-2" text-anchor="middle" class="ct sans" font-size="13">Citation link-liveness</text>
      <text x="0" y="16" text-anchor="middle" class="cd sans" font-size="10">verify URLs resolve pre-display</text>
    </g>
    <g transform="translate(459,436) rotate(1,0,0)">
      <rect x="-108" y="-32" width="220" height="76" rx="8" fill="#1F2328" opacity="0.04"/>
      <rect x="-109" y="-35" width="220" height="76" rx="8" fill="#1F2328" opacity="0.05"/>
      <rect x="-110" y="-38" width="220" height="76" rx="8" fill="#FFFFFF" class="s" stroke-width="1.5"/>
      <g class="s" stroke-width="2.25"><path d="M0,-44 v6"/><path d="M-6,-38 h12 l-2,7 h-8 z"/><path d="M0,-31 v8"/></g>
      <circle cx="-92" cy="-22" r="3.6" fill="#6B6A66"/>
      <g transform="translate(-92,21)">
        <circle class="s" stroke-width="1.5" cx="0" cy="0" r="6"/>
        <path d="M0,-6 A6,6 0 0,1 0,6 Z" fill="#6B6A66"/>
      </g>
      <text x="0" y="-2" text-anchor="middle" class="ct sans" font-size="13">Docs accuracy &amp; examples</text>
      <text x="0" y="16" text-anchor="middle" class="cd sans" font-size="10">runnable demo patient, verified claims</text>
    </g>
  </g>

  <!-- NEXT column: todo = ink dot + dashed status ring -->
  <g>
    <g transform="translate(733,254) rotate(-1.5,0,0)">
      <rect x="-108" y="-32" width="220" height="76" rx="8" fill="#1F2328" opacity="0.04"/>
      <rect x="-109" y="-35" width="220" height="76" rx="8" fill="#1F2328" opacity="0.05"/>
      <rect x="-110" y="-38" width="220" height="76" rx="8" fill="#FFFFFF" class="s" stroke-width="1.5"/>
      <g class="s" stroke-width="2.25"><path d="M0,-44 v6"/><path d="M-6,-38 h12 l-2,7 h-8 z"/><path d="M0,-31 v8"/></g>
      <circle cx="-92" cy="-22" r="3.2" fill="#1F2328"/>
      <circle class="s" stroke-width="1.5" stroke-dasharray="2.5 3" cx="-92" cy="21" r="6"/>
      <text x="0" y="-2" text-anchor="middle" class="ct sans" font-size="13">First production EHR adapter</text>
      <text x="0" y="16" text-anchor="middle" class="cd sans" font-size="10">Epic or OpenEMR (<tspan class="mono">FHIR</tspan>/<tspan class="mono">HL7</tspan>)</text>
    </g>
    <g transform="translate(733,345) rotate(2,0,0)">
      <rect x="-108" y="-32" width="220" height="76" rx="8" fill="#1F2328" opacity="0.04"/>
      <rect x="-109" y="-35" width="220" height="76" rx="8" fill="#1F2328" opacity="0.05"/>
      <rect x="-110" y="-38" width="220" height="76" rx="8" fill="#FFFFFF" class="s" stroke-width="1.5"/>
      <g class="s" stroke-width="2.25"><path d="M0,-44 v6"/><path d="M-6,-38 h12 l-2,7 h-8 z"/><path d="M0,-31 v8"/></g>
      <circle cx="-92" cy="-22" r="3.2" fill="#1F2328"/>
      <circle class="s" stroke-width="1.5" stroke-dasharray="2.5 3" cx="-92" cy="21" r="6"/>
      <text x="0" y="-2" text-anchor="middle" class="ct sans" font-size="13">AuthN / RBAC + audit log</text>
      <text x="0" y="16" text-anchor="middle" class="cd sans" font-size="10">SSO/OIDC, role scoping, access trail</text>
    </g>
    <g transform="translate(733,436) rotate(-1,0,0)">
      <rect x="-108" y="-32" width="220" height="76" rx="8" fill="#1F2328" opacity="0.04"/>
      <rect x="-109" y="-35" width="220" height="76" rx="8" fill="#1F2328" opacity="0.05"/>
      <rect x="-110" y="-38" width="220" height="76" rx="8" fill="#FFFFFF" class="s" stroke-width="1.5"/>
      <g class="s" stroke-width="2.25"><path d="M0,-44 v6"/><path d="M-6,-38 h12 l-2,7 h-8 z"/><path d="M0,-31 v8"/></g>
      <circle cx="-92" cy="-22" r="3.2" fill="#1F2328"/>
      <circle class="s" stroke-width="1.5" stroke-dasharray="2.5 3" cx="-92" cy="21" r="6"/>
      <text x="0" y="-2" text-anchor="middle" class="ct sans" font-size="13">Observability</text>
      <text x="0" y="16" text-anchor="middle" class="cd sans" font-size="10">tracing, cost/latency, alerting</text>
    </g>
    <g transform="translate(733,527) rotate(1.5,0,0)">
      <rect x="-108" y="-32" width="220" height="76" rx="8" fill="#1F2328" opacity="0.04"/>
      <rect x="-109" y="-35" width="220" height="76" rx="8" fill="#1F2328" opacity="0.05"/>
      <rect x="-110" y="-38" width="220" height="76" rx="8" fill="#FFFFFF" class="s" stroke-width="1.5"/>
      <g class="s" stroke-width="2.25"><path d="M0,-44 v6"/><path d="M-6,-38 h12 l-2,7 h-8 z"/><path d="M0,-31 v8"/></g>
      <circle cx="-92" cy="-22" r="3.2" fill="#1F2328"/>
      <circle class="s" stroke-width="1.5" stroke-dasharray="2.5 3" cx="-92" cy="21" r="6"/>
      <text x="0" y="-2" text-anchor="middle" class="ct sans" font-size="13">Data governance</text>
      <text x="0" y="16" text-anchor="middle" class="cd sans" font-size="10">PHI retention/TTL, secure delete</text>
    </g>
    <g transform="translate(733,618) rotate(-1.5,0,0)">
      <rect x="-108" y="-32" width="220" height="76" rx="8" fill="#1F2328" opacity="0.04"/>
      <rect x="-109" y="-35" width="220" height="76" rx="8" fill="#1F2328" opacity="0.05"/>
      <rect x="-110" y="-38" width="220" height="76" rx="8" fill="#FFFFFF" class="s" stroke-width="1.5"/>
      <g class="s" stroke-width="2.25"><path d="M0,-44 v6"/><path d="M-6,-38 h12 l-2,7 h-8 z"/><path d="M0,-31 v8"/></g>
      <circle cx="-92" cy="-22" r="3.2" fill="#1F2328"/>
      <circle class="s" stroke-width="1.5" stroke-dasharray="2.5 3" cx="-92" cy="21" r="6"/>
      <text x="0" y="-2" text-anchor="middle" class="ct sans" font-size="13">Test suite + eval slice</text>
      <text x="0" y="16" text-anchor="middle" class="cd sans" font-size="9">parser/pipeline fixtures, lab-accuracy eval</text>
    </g>
  </g>

  <!-- RESEARCHING / COMING column: todo = ink dot + dashed status ring; bespoke ink bolt glyph -->
  <g>
    <g transform="translate(1007,254) rotate(2,0,0)">
      <rect x="-108" y="-32" width="220" height="76" rx="8" fill="#1F2328" opacity="0.04"/>
      <rect x="-109" y="-35" width="220" height="76" rx="8" fill="#1F2328" opacity="0.05"/>
      <rect x="-110" y="-38" width="220" height="76" rx="8" fill="#FFFFFF" class="s" stroke-width="1.5"/>
      <g class="s" stroke-width="2.25"><path d="M0,-44 v6"/><path d="M-6,-38 h12 l-2,7 h-8 z"/><path d="M0,-31 v8"/></g>
      <circle cx="-92" cy="-22" r="3.2" fill="#1F2328"/>
      <circle class="s" stroke-width="1.5" stroke-dasharray="2.5 3" cx="-92" cy="21" r="6"/>
      <!-- bespoke ink bolt glyph -->
      <path class="s" stroke-width="2.25" d="M-66,-12 l-7,9 h5 l-4,8 8,-10 h-5 z"/>
      <text x="3" y="-2" text-anchor="middle" class="ct sans" font-size="13">TurboQuant</text>
      <text x="0" y="16" text-anchor="middle" class="cd sans" font-size="10">Google Research compression</text>
    </g>
    <g transform="translate(1007,345) rotate(-2,0,0)">
      <rect x="-108" y="-32" width="220" height="76" rx="8" fill="#1F2328" opacity="0.04"/>
      <rect x="-109" y="-35" width="220" height="76" rx="8" fill="#1F2328" opacity="0.05"/>
      <rect x="-110" y="-38" width="220" height="76" rx="8" fill="#FFFFFF" class="s" stroke-width="1.5"/>
      <g class="s" stroke-width="2.25"><path d="M0,-44 v6"/><path d="M-6,-38 h12 l-2,7 h-8 z"/><path d="M0,-31 v8"/></g>
      <circle cx="-92" cy="-22" r="3.2" fill="#1F2328"/>
      <circle class="s" stroke-width="1.5" stroke-dasharray="2.5 3" cx="-92" cy="21" r="6"/>
      <text x="0" y="-2" text-anchor="middle" class="ct sans" font-size="13">Clinical world model</text>
      <text x="0" y="16" text-anchor="middle" class="cd sans" font-size="10">patient-state model (research)</text>
    </g>
    <g transform="translate(1007,436) rotate(1.5,0,0)">
      <rect x="-108" y="-32" width="220" height="76" rx="8" fill="#1F2328" opacity="0.04"/>
      <rect x="-109" y="-35" width="220" height="76" rx="8" fill="#1F2328" opacity="0.05"/>
      <rect x="-110" y="-38" width="220" height="76" rx="8" fill="#FFFFFF" class="s" stroke-width="1.5"/>
      <g class="s" stroke-width="2.25"><path d="M0,-44 v6"/><path d="M-6,-38 h12 l-2,7 h-8 z"/><path d="M0,-31 v8"/></g>
      <circle cx="-92" cy="-22" r="3.2" fill="#1F2328"/>
      <circle class="s" stroke-width="1.5" stroke-dasharray="2.5 3" cx="-92" cy="21" r="6"/>
      <text x="0" y="-2" text-anchor="middle" class="ct sans" font-size="13">On-prem / local LLM</text>
      <text x="0" y="16" text-anchor="middle" class="cd sans" font-size="10">self-hosted model backends</text>
    </g>
    <g transform="translate(1007,527) rotate(-1,0,0)">
      <rect x="-108" y="-32" width="220" height="76" rx="8" fill="#1F2328" opacity="0.04"/>
      <rect x="-109" y="-35" width="220" height="76" rx="8" fill="#1F2328" opacity="0.05"/>
      <rect x="-110" y="-38" width="220" height="76" rx="8" fill="#FFFFFF" class="s" stroke-width="1.5"/>
      <g class="s" stroke-width="2.25"><path d="M0,-44 v6"/><path d="M-6,-38 h12 l-2,7 h-8 z"/><path d="M0,-31 v8"/></g>
      <circle cx="-92" cy="-22" r="3.2" fill="#1F2328"/>
      <circle class="s" stroke-width="1.5" stroke-dasharray="2.5 3" cx="-92" cy="21" r="6"/>
      <text x="0" y="-2" text-anchor="middle" class="ct sans" font-size="13"><tspan class="mono">DICOM</tspan> / multimodal</text>
      <text x="0" y="16" text-anchor="middle" class="cd sans" font-size="10">imaging + report ingestion</text>
    </g>
    <g transform="translate(1007,618) rotate(1.5,0,0)">
      <rect x="-108" y="-32" width="220" height="76" rx="8" fill="#1F2328" opacity="0.04"/>
      <rect x="-109" y="-35" width="220" height="76" rx="8" fill="#1F2328" opacity="0.05"/>
      <rect x="-110" y="-38" width="220" height="76" rx="8" fill="#FFFFFF" class="s" stroke-width="1.5"/>
      <g class="s" stroke-width="2.25"><path d="M0,-44 v6"/><path d="M-6,-38 h12 l-2,7 h-8 z"/><path d="M0,-31 v8"/></g>
      <circle cx="-92" cy="-22" r="3.2" fill="#1F2328"/>
      <circle class="s" stroke-width="1.5" stroke-dasharray="2.5 3" cx="-92" cy="21" r="6"/>
      <!-- bespoke ink paperclip glyph -->
      <path class="s" stroke-width="2.25" transform="translate(-74,-11) scale(0.62)" d="M21.44 11.05l-9.19 9.19a6 6 0 0 1-8.49-8.49l9.19-9.19a4 4 0 0 1 5.66 5.66l-9.2 9.19a2 2 0 0 1-2.83-2.83l8.49-8.48"/>
      <text x="6" y="-2" text-anchor="middle" class="ct sans" font-size="13">Paperclip</text>
      <text x="0" y="16" text-anchor="middle" class="cd sans" font-size="10">source papers clipped to refs</text>
    </g>
  </g>

  <!-- legend: status glyphs -->
  <g transform="translate(56,690)">
    <circle cx="6" cy="-4" r="3.6" fill="#5E7E5A"/>
    <path class="s" stroke-width="2.25" d="M16,-4 l3,4 6,-8"/>
    <text x="32" y="0" class="muted sans" font-size="11">shipped</text>
    <g transform="translate(110,-4)"><circle class="s" stroke-width="1.5" cx="0" cy="0" r="6"/><path d="M0,-6 A6,6 0 0,1 0,6 Z" fill="#6B6A66"/></g>
    <text x="124" y="0" class="muted sans" font-size="11">in progress</text>
    <circle class="s" stroke-width="1.5" stroke-dasharray="2.5 3" cx="205" cy="-4" r="6"/>
    <text x="218" y="0" class="muted sans" font-size="11">todo</text>
  </g>

  <text x="1156" y="690" text-anchor="end" class="muted sans" font-size="11">Board reflects intent, not guarantees. &#8220;Coming&#8221; items are early research; see Limitations in the README.</text>
</svg>
